<svg width="856mm" height="303mm" viewBox="0 0 856 303" xmlns="http://www.w3.org/2000/svg" version="1.1" preserveAspectRatio="xMidYMid meet"><g id="svgGroup" stroke-linecap="round" fill-rule="evenodd" font-size="9pt" stroke="#000" stroke-width="0.25mm" fill="none" style="stroke:#000;stroke-width:0.25mm;fill:none"><path d="M 0 153 L 0 168.938 L 3 168.938 L 3 185.813 L 0 185.813 L 0 202.688 L 3 202.688 L 3 219.563 L 0 219.563 L 0 236.438 L 3 236.438 L 3 253.313 L 0 253.313 L 0 270.188 L 3 270.188 L 3 287.063 L 0 287.063 L 0 303 L 31.563 303 L 31.563 300 L 48.438 300 L 48.438 303 L 65.313 303 L 65.313 300 L 82.188 300 L 82.188 303 L 99.063 303 L 99.063 300 L 115.938 300 L 115.938 303 L 132.813 303 L 132.813 300 L 149.688 300 L 149.688 303 L 166.563 303 L 166.563 300 L 183.438 300 L 183.438 303 L 200.313 303 L 200.313 300 L 217.188 300 L 217.188 303 L 234.063 303 L 234.063 300 L 250.938 300 L 250.938 303 L 267.813 303 L 267.813 300 L 284.688 300 L 284.688 303 L 301.563 303 L 301.563 300 L 318.438 300 L 318.438 303 L 335.313 303 L 350 303 L 350 287.063 L 347 287.063 L 347 270.188 L 350 270.188 L 350 253.313 L 347 253.313 L 347 236.438 L 350 236.438 L 350 219.563 L 347 219.563 L 347 202.688 L 350 202.688 L 350 185.813 L 347 185.813 L 347 168.938 L 350 168.938 L 350 153 L 0 153 Z" id="front_outsideCutPath" stroke="#FF0000" stroke-width="0.1" style="stroke:#FF0000;stroke-width:0.1" vector-effect="non-scaling-stroke"/><path d="M 196.863 239.33 L 194.431 239.33 L 194.431 228.945 A 6.874 6.874 0 0 0 194.352 227.867 Q 194.262 227.299 194.068 226.847 A 2.893 2.893 0 0 0 193.538 226.015 A 2.741 2.741 0 0 0 192.413 225.297 Q 191.707 225.048 190.74 225.048 Q 189.08 225.048 188.005 225.639 A 3.428 3.428 0 0 0 187.048 226.41 A 3.975 3.975 0 0 0 186.357 227.618 Q 185.941 228.727 185.885 230.379 A 15.578 15.578 0 0 0 185.876 230.907 L 185.876 239.33 L 183.445 239.33 L 183.445 223.276 L 185.422 223.276 L 185.818 225.473 L 185.935 225.473 A 4.924 4.924 0 0 1 187.864 223.718 A 5.921 5.921 0 0 1 188.03 223.634 Q 189.377 222.983 191.033 222.983 A 9.601 9.601 0 0 1 192.667 223.112 Q 193.55 223.265 194.248 223.598 A 4.37 4.37 0 0 1 195.398 224.382 Q 196.512 225.446 196.779 227.481 A 10.612 10.612 0 0 1 196.863 228.857 L 196.863 239.33 Z M 150.149 223.276 L 150.149 225.165 L 146.062 225.165 L 146.062 239.33 L 143.63 239.33 L 143.63 225.165 L 140.759 225.165 L 140.759 224.067 L 143.63 223.188 L 143.63 222.294 A 9.855 9.855 0 0 1 143.86 220.061 Q 144.572 217.015 147.484 216.487 A 7.391 7.391 0 0 1 148.801 216.376 A 7.83 7.83 0 0 1 149.909 216.461 Q 150.448 216.538 151.048 216.686 A 15.741 15.741 0 0 1 151.79 216.889 L 151.16 218.837 Q 150.161 218.515 149.369 218.421 A 5.23 5.23 0 0 0 148.757 218.383 A 3.279 3.279 0 0 0 147.967 218.472 A 2.106 2.106 0 0 0 146.721 219.299 A 2.814 2.814 0 0 0 146.349 220.049 Q 146.102 220.781 146.068 221.87 A 11.48 11.48 0 0 0 146.062 222.236 L 146.062 223.276 L 150.149 223.276 Z M 209.241 237.323 L 209.241 239.184 A 2.392 2.392 0 0 1 208.957 239.296 Q 208.605 239.413 208.076 239.499 Q 207.358 239.615 206.774 239.623 A 6.232 6.232 0 0 1 206.692 239.623 A 6.351 6.351 0 0 1 204.82 239.371 Q 202.763 238.736 202.225 236.502 A 7.643 7.643 0 0 1 202.034 234.716 L 202.034 225.165 L 199.734 225.165 L 199.734 223.993 L 202.034 222.983 L 203.059 219.555 L 204.465 219.555 L 204.465 223.276 L 209.124 223.276 L 209.124 225.165 L 204.465 225.165 L 204.465 234.613 Q 204.465 235.632 204.805 236.319 A 2.359 2.359 0 0 0 205.154 236.84 A 2.259 2.259 0 0 0 206.542 237.579 A 3.25 3.25 0 0 0 207.043 237.616 A 7.986 7.986 0 0 0 208.213 237.533 A 7.359 7.359 0 0 0 208.289 237.521 A 13.154 13.154 0 0 0 208.64 237.461 Q 208.999 237.394 209.241 237.323 Z M 162.322 223.158 L 161.985 225.414 A 10.717 10.717 0 0 0 161.214 225.272 Q 160.679 225.195 160.227 225.195 A 4.213 4.213 0 0 0 157.114 226.539 A 5.764 5.764 0 0 0 156.895 226.777 A 5.553 5.553 0 0 0 155.555 229.894 A 7.381 7.381 0 0 0 155.51 230.717 L 155.51 239.33 L 153.079 239.33 L 153.079 223.276 L 155.085 223.276 L 155.364 226.249 L 155.481 226.249 Q 156.375 224.682 157.634 223.832 A 4.847 4.847 0 0 1 160.403 222.983 A 11.163 11.163 0 0 1 161.402 223.025 A 8.148 8.148 0 0 1 162.322 223.158 Z M 178.959 233.732 A 12.56 12.56 0 0 0 179.182 231.288 A 14.272 14.272 0 0 0 179.177 230.902 Q 179.141 229.565 178.851 228.431 A 7.572 7.572 0 0 0 177.197 225.224 A 6.366 6.366 0 0 0 174.242 223.318 A 8.171 8.171 0 0 0 171.843 222.983 A 9.444 9.444 0 0 0 170.147 223.128 A 6.432 6.432 0 0 0 166.394 225.173 Q 164.431 227.362 164.431 231.288 A 12.165 12.165 0 0 0 164.584 233.259 A 8.995 8.995 0 0 0 165.339 235.712 A 7.992 7.992 0 0 0 165.516 236.059 A 6.583 6.583 0 0 0 167.917 238.612 A 6.771 6.771 0 0 0 169.472 239.304 A 7.809 7.809 0 0 0 171.741 239.623 A 9.442 9.442 0 0 0 173.39 239.485 A 6.483 6.483 0 0 0 177.205 237.419 A 6.783 6.783 0 0 0 178.012 236.309 Q 178.671 235.182 178.959 233.732 Z M 166.951 231.288 A 12.314 12.314 0 0 0 167.068 233.047 Q 167.197 233.94 167.469 234.664 A 5.101 5.101 0 0 0 168.181 235.976 A 3.985 3.985 0 0 0 170.777 237.504 A 6.039 6.039 0 0 0 171.799 237.587 A 5.648 5.648 0 0 0 173.289 237.402 A 3.931 3.931 0 0 0 175.425 235.983 A 5.22 5.22 0 0 0 176.238 234.4 Q 176.477 233.668 176.581 232.775 A 12.809 12.809 0 0 0 176.663 231.288 A 12.133 12.133 0 0 0 176.548 229.559 Q 176.285 227.742 175.425 226.637 A 4 4 0 0 0 172.938 225.154 A 6.133 6.133 0 0 0 171.77 225.048 A 5.787 5.787 0 0 0 170.329 225.217 A 3.873 3.873 0 0 0 168.167 226.615 A 5.028 5.028 0 0 0 167.385 228.126 Q 166.951 229.432 166.951 231.288 Z" id="front_labelLayer" stroke="#777777" fill="#777777" style="stroke:#777777;fill:#777777" vector-effect="non-scaling-stroke"/><path d="M 356 153 L 356 168.938 L 353 168.938 L 353 185.813 L 356 185.813 L 356 202.688 L 353 202.688 L 353 219.563 L 356 219.563 L 356 236.438 L 353 236.438 L 353 253.313 L 356 253.313 L 356 270.188 L 353 270.188 L 353 287.063 L 356 287.063 L 356 303 L 368.938 303 L 368.938 300 L 385.813 300 L 385.813 303 L 402.688 303 L 402.688 300 L 419.563 300 L 419.563 303 L 436.438 303 L 436.438 300 L 453.313 300 L 453.313 303 L 470.188 303 L 470.188 300 L 487.063 300 L 487.063 303 L 500 303 L 500 287.063 L 503 287.063 L 503 270.188 L 500 270.188 L 500 253.313 L 503 253.313 L 503 236.438 L 500 236.438 L 500 219.563 L 503 219.563 L 503 202.688 L 500 202.688 L 500 185.813 L 503 185.813 L 503 168.938 L 500 168.938 L 500 153 L 356 153 Z" id="left_outsideCutPath" stroke="#FF0000" stroke-width="0.1" style="stroke:#FF0000;stroke-width:0.1" vector-effect="non-scaling-stroke"/><path d="M 438.671 223.276 L 438.671 225.165 L 434.584 225.165 L 434.584 239.33 L 432.153 239.33 L 432.153 225.165 L 429.282 225.165 L 429.282 224.067 L 432.153 223.188 L 432.153 222.294 A 9.855 9.855 0 0 1 432.383 220.061 Q 433.094 217.015 436.006 216.487 A 7.391 7.391 0 0 1 437.324 216.376 A 7.83 7.83 0 0 1 438.432 216.461 Q 438.971 216.538 439.571 216.686 A 15.741 15.741 0 0 1 440.312 216.889 L 439.682 218.837 Q 438.683 218.515 437.891 218.421 A 5.23 5.23 0 0 0 437.28 218.383 A 3.279 3.279 0 0 0 436.489 218.472 A 2.106 2.106 0 0 0 435.244 219.299 A 2.814 2.814 0 0 0 434.872 220.049 Q 434.625 220.781 434.59 221.87 A 11.48 11.48 0 0 0 434.584 222.236 L 434.584 223.276 L 438.671 223.276 Z M 427.29 230.204 L 427.29 231.742 L 416.23 231.742 A 9.76 9.76 0 0 0 416.401 233.376 Q 416.727 235.027 417.658 236.034 A 4.418 4.418 0 0 0 419.978 237.341 A 6.695 6.695 0 0 0 421.474 237.499 A 12.843 12.843 0 0 0 426.284 236.546 A 14.716 14.716 0 0 0 426.601 236.415 L 426.601 238.583 A 14.598 14.598 0 0 1 425.271 239.086 A 11.163 11.163 0 0 1 424.162 239.382 Q 423.012 239.623 421.386 239.623 A 9.449 9.449 0 0 1 419.022 239.343 A 6.691 6.691 0 0 1 415.769 237.455 Q 413.829 235.412 413.717 231.874 A 13.89 13.89 0 0 1 413.71 231.435 A 12.768 12.768 0 0 1 413.947 228.903 Q 414.258 227.364 414.98 226.167 A 7.201 7.201 0 0 1 415.622 225.268 A 6.231 6.231 0 0 1 420.164 223.003 A 8.596 8.596 0 0 1 420.756 222.983 A 7.408 7.408 0 0 1 422.842 223.262 A 5.637 5.637 0 0 1 425.532 224.967 Q 427.29 226.952 427.29 230.204 Z M 448.984 237.323 L 448.984 239.184 A 2.392 2.392 0 0 1 448.7 239.296 Q 448.348 239.413 447.819 239.499 Q 447.101 239.615 446.517 239.623 A 6.232 6.232 0 0 1 446.435 239.623 A 6.351 6.351 0 0 1 444.563 239.371 Q 442.506 238.736 441.968 236.502 A 7.643 7.643 0 0 1 441.777 234.716 L 441.777 225.165 L 439.477 225.165 L 439.477 223.993 L 441.777 222.983 L 442.802 219.555 L 444.208 219.555 L 444.208 223.276 L 448.867 223.276 L 448.867 225.165 L 444.208 225.165 L 444.208 234.613 Q 444.208 235.632 444.548 236.319 A 2.359 2.359 0 0 0 444.897 236.84 A 2.259 2.259 0 0 0 446.286 237.579 A 3.25 3.25 0 0 0 446.787 237.616 A 7.986 7.986 0 0 0 447.956 237.533 A 7.359 7.359 0 0 0 448.032 237.521 A 13.154 13.154 0 0 0 448.383 237.461 Q 448.742 237.394 448.984 237.323 Z M 409.448 216.537 L 409.448 239.33 L 407.016 239.33 L 407.016 216.537 L 409.448 216.537 Z M 416.289 229.765 L 424.682 229.765 Q 424.682 227.465 423.657 226.242 A 3.331 3.331 0 0 0 421.651 225.1 A 4.997 4.997 0 0 0 420.727 225.019 A 4.793 4.793 0 0 0 419.342 225.209 A 3.703 3.703 0 0 0 417.644 226.278 Q 416.494 227.538 416.289 229.765 Z" id="left_labelLayer" stroke="#777777" fill="#777777" style="stroke:#777777;fill:#777777" vector-effect="non-scaling-stroke"/><path d="M 0 0 L 0 15.938 L 3 15.938 L 3 32.813 L 0 32.813 L 0 49.688 L 3 49.688 L 3 66.563 L 0 66.563 L 0 83.438 L 3 83.438 L 3 100.313 L 0 100.313 L 0 117.188 L 3 117.188 L 3 134.063 L 0 134.063 L 0 150 L 31.563 150 L 31.563 147 L 48.438 147 L 48.438 150 L 65.313 150 L 65.313 147 L 82.188 147 L 82.188 150 L 99.063 150 L 99.063 147 L 115.938 147 L 115.938 150 L 132.813 150 L 132.813 147 L 149.688 147 L 149.688 150 L 166.563 150 L 166.563 147 L 183.438 147 L 183.438 150 L 200.313 150 L 200.313 147 L 217.188 147 L 217.188 150 L 234.063 150 L 234.063 147 L 250.938 147 L 250.938 150 L 267.813 150 L 267.813 147 L 284.688 147 L 284.688 150 L 301.563 150 L 301.563 147 L 318.438 147 L 318.438 150 L 335.313 150 L 350 150 L 350 134.063 L 347 134.063 L 347 117.188 L 350 117.188 L 350 100.313 L 347 100.313 L 347 83.438 L 350 83.438 L 350 66.563 L 347 66.563 L 347 49.688 L 350 49.688 L 350 32.813 L 347 32.813 L 347 15.938 L 350 15.938 L 350 0 L 0 0 Z" id="back_outsideCutPath" stroke="#FF0000" stroke-width="0.1" style="stroke:#FF0000;stroke-width:0.1" vector-effect="non-scaling-stroke"/><path d="M 195.537 78.032 L 195.654 78.032 Q 196.284 77.139 197.573 75.688 L 202.759 70.195 L 205.645 70.195 L 199.141 77.036 L 206.099 86.25 L 203.154 86.25 L 197.485 78.662 L 195.654 80.244 L 195.654 86.25 L 193.252 86.25 L 193.252 63.457 L 195.654 63.457 L 195.654 75.542 A 16.204 16.204 0 0 1 195.647 76 Q 195.626 76.75 195.541 77.971 A 101.139 101.139 0 0 1 195.537 78.032 Z M 146.333 84.184 L 146.157 84.184 L 145.645 86.25 L 143.901 86.25 L 143.901 63.457 L 146.333 63.457 L 146.333 68.994 Q 146.333 70.854 146.216 72.334 L 146.333 72.334 Q 148.032 69.931 151.372 69.931 A 7.432 7.432 0 0 1 153.464 70.211 A 5.563 5.563 0 0 1 156.287 72.092 Q 158.037 74.253 158.037 78.208 A 14.257 14.257 0 0 1 157.848 80.607 Q 157.46 82.879 156.272 84.353 A 5.757 5.757 0 0 1 152.181 86.504 A 8.247 8.247 0 0 1 151.372 86.543 A 7.376 7.376 0 0 1 149.519 86.317 A 6.418 6.418 0 0 1 148.508 85.964 A 5.386 5.386 0 0 1 146.333 84.184 Z M 173.96 86.25 L 172.158 86.25 L 171.675 83.965 L 171.558 83.965 A 10.08 10.08 0 0 1 170.742 84.878 Q 169.951 85.655 169.163 86.008 A 5.608 5.608 0 0 1 168.004 86.374 Q 167.442 86.49 166.792 86.526 A 10.943 10.943 0 0 1 166.182 86.543 A 7.462 7.462 0 0 1 164.663 86.398 Q 163.735 86.205 163.022 85.755 A 4.187 4.187 0 0 1 162.439 85.312 A 3.997 3.997 0 0 1 161.233 83.204 A 6.118 6.118 0 0 1 161.084 81.811 A 4.208 4.208 0 0 1 163.477 77.84 Q 165.399 76.818 168.862 76.714 L 171.587 76.626 L 171.587 75.63 Q 171.587 74.475 171.283 73.689 A 2.714 2.714 0 0 0 170.774 72.839 Q 169.961 71.938 168.174 71.938 A 7.917 7.917 0 0 0 166.352 72.165 Q 165.516 72.363 164.606 72.734 A 16.285 16.285 0 0 0 163.633 73.169 L 162.886 71.308 Q 164.072 70.664 165.486 70.298 A 11.261 11.261 0 0 1 168.32 69.931 A 10.27 10.27 0 0 1 169.884 70.042 Q 170.688 70.167 171.33 70.43 A 4.139 4.139 0 0 1 172.576 71.206 Q 173.96 72.48 173.96 75.293 L 173.96 86.25 Z M 189.678 70.737 L 188.931 72.803 A 10.817 10.817 0 0 0 187.757 72.412 A 12.92 12.92 0 0 0 187.173 72.268 Q 186.358 72.086 185.705 72.06 A 5.39 5.39 0 0 0 185.488 72.055 Q 181.143 72.055 180.657 76.979 A 13.436 13.436 0 0 0 180.596 78.296 A 11.776 11.776 0 0 0 180.712 80.011 Q 180.969 81.749 181.79 82.837 A 3.862 3.862 0 0 0 184.292 84.332 A 5.883 5.883 0 0 0 185.327 84.419 A 10.179 10.179 0 0 0 188.135 84.01 A 12.568 12.568 0 0 0 189.443 83.555 L 189.443 85.708 Q 188.06 86.425 186.06 86.526 A 13.335 13.335 0 0 1 185.386 86.543 A 9.088 9.088 0 0 1 183.175 86.289 A 6.163 6.163 0 0 1 179.988 84.397 Q 178.337 82.543 178.112 79.362 A 14.703 14.703 0 0 1 178.076 78.325 A 13.417 13.417 0 0 1 178.284 75.885 Q 178.711 73.578 180.017 72.099 A 6.296 6.296 0 0 1 183.465 70.117 A 9.545 9.545 0 0 1 185.547 69.902 A 10.973 10.973 0 0 1 187.861 70.151 A 12.137 12.137 0 0 1 188.536 70.315 Q 189.225 70.506 189.678 70.737 Z M 151.021 71.968 Q 148.53 71.968 147.432 73.396 Q 146.466 74.651 146.349 77.415 A 18.735 18.735 0 0 0 146.333 78.208 A 16.078 16.078 0 0 0 146.413 79.87 Q 146.587 81.546 147.147 82.566 A 3.668 3.668 0 0 0 147.461 83.049 A 3.528 3.528 0 0 0 149.25 84.257 Q 149.849 84.444 150.578 84.491 A 7.819 7.819 0 0 0 151.079 84.507 A 4.847 4.847 0 0 0 152.456 84.322 A 3.497 3.497 0 0 0 154.419 82.873 Q 155.204 81.707 155.428 79.811 A 13.933 13.933 0 0 0 155.518 78.179 A 14.366 14.366 0 0 0 155.431 76.542 Q 155.209 74.611 154.419 73.506 A 3.546 3.546 0 0 0 152.161 72.077 A 5.624 5.624 0 0 0 151.021 71.968 Z M 171.528 79.805 L 171.528 78.354 L 169.097 78.457 A 17.854 17.854 0 0 0 167.67 78.56 Q 166.263 78.724 165.381 79.113 A 3.735 3.735 0 0 0 164.915 79.358 A 2.595 2.595 0 0 0 163.678 81.24 A 3.841 3.841 0 0 0 163.633 81.841 A 3.475 3.475 0 0 0 163.719 82.638 Q 163.863 83.251 164.25 83.672 A 2.166 2.166 0 0 0 164.431 83.847 Q 165.121 84.442 166.285 84.523 A 5.469 5.469 0 0 0 166.665 84.536 Q 168.936 84.536 170.232 83.291 Q 171.521 82.053 171.528 79.829 A 7.705 7.705 0 0 0 171.528 79.805 Z" id="back_labelLayer" stroke="#777777" fill="#777777" style="stroke:#777777;fill:#777777" vector-effect="non-scaling-stroke"/><path d="M 356 0 L 356 15.938 L 353 15.938 L 353 32.813 L 356 32.813 L 356 49.688 L 353 49.688 L 353 66.563 L 356 66.563 L 356 83.438 L 353 83.438 L 353 100.313 L 356 100.313 L 356 117.188 L 353 117.188 L 353 134.063 L 356 134.063 L 356 150 L 368.938 150 L 368.938 147 L 385.813 147 L 385.813 150 L 402.688 150 L 402.688 147 L 419.563 147 L 419.563 150 L 436.438 150 L 436.438 147 L 453.313 147 L 453.313 150 L 470.188 150 L 470.188 147 L 487.063 147 L 487.063 150 L 500 150 L 500 134.063 L 503 134.063 L 503 117.188 L 500 117.188 L 500 100.313 L 503 100.313 L 503 83.438 L 500 83.438 L 500 66.563 L 503 66.563 L 503 49.688 L 500 49.688 L 500 32.813 L 503 32.813 L 503 15.938 L 500 15.938 L 500 0 L 356 0 Z" id="right_outsideCutPath" stroke="#FF0000" stroke-width="0.1" style="stroke:#FF0000;stroke-width:0.1" vector-effect="non-scaling-stroke"/><path d="M 446.655 82.793 L 444.223 82.793 L 444.223 72.407 A 6.874 6.874 0 0 0 444.144 71.329 Q 444.054 70.762 443.86 70.309 A 2.893 2.893 0 0 0 443.33 69.477 A 2.741 2.741 0 0 0 442.205 68.76 Q 441.499 68.511 440.532 68.511 A 7.358 7.358 0 0 0 439.156 68.63 Q 437.654 68.917 436.833 69.888 A 4.046 4.046 0 0 0 436.146 71.104 Q 435.732 72.219 435.677 73.875 A 15.694 15.694 0 0 0 435.668 74.399 L 435.668 82.793 L 433.237 82.793 L 433.237 60 L 435.668 60 L 435.668 66.899 A 21.874 21.874 0 0 1 435.653 67.739 Q 435.638 68.133 435.608 68.472 A 9.512 9.512 0 0 1 435.551 68.965 L 435.698 68.965 A 4.858 4.858 0 0 1 437.4 67.327 A 5.935 5.935 0 0 1 437.741 67.141 Q 439.067 66.475 440.766 66.475 A 9.866 9.866 0 0 1 442.424 66.604 Q 443.305 66.755 444.003 67.08 A 4.383 4.383 0 0 1 445.183 67.873 A 4.234 4.234 0 0 1 446.227 69.513 Q 446.478 70.195 446.581 71.041 A 10.515 10.515 0 0 1 446.655 72.319 L 446.655 82.793 Z M 424.389 66.738 L 429.941 66.738 L 429.941 68.276 L 426.967 68.628 A 3.952 3.952 0 0 1 427.309 69.137 Q 427.518 69.503 427.7 69.968 Q 428.022 70.796 428.022 71.836 A 5.574 5.574 0 0 1 427.766 73.564 A 4.509 4.509 0 0 1 426.411 75.6 Q 424.959 76.867 422.533 76.993 A 10.561 10.561 0 0 1 421.987 77.007 A 7.815 7.815 0 0 1 421.083 76.956 A 6.599 6.599 0 0 1 420.639 76.89 A 4.327 4.327 0 0 0 419.942 77.341 Q 419.086 78.031 419.086 78.955 Q 419.086 79.614 419.628 79.929 A 1.706 1.706 0 0 0 420.007 80.085 Q 420.403 80.201 421.006 80.232 A 9.25 9.25 0 0 0 421.489 80.244 L 424.331 80.244 A 9.954 9.954 0 0 1 425.842 80.351 Q 426.633 80.473 427.271 80.733 A 4.394 4.394 0 0 1 428.337 81.343 A 3.557 3.557 0 0 1 429.659 83.609 A 5.343 5.343 0 0 1 429.736 84.536 A 5.265 5.265 0 0 1 429.435 86.357 Q 428.934 87.727 427.597 88.601 Q 426.106 89.576 423.66 89.872 A 19.273 19.273 0 0 1 421.357 90 A 13.624 13.624 0 0 1 419.529 89.885 Q 418.602 89.76 417.845 89.495 A 5.651 5.651 0 0 1 416.501 88.828 A 3.876 3.876 0 0 1 415.252 87.472 Q 414.852 86.73 414.802 85.79 A 5.135 5.135 0 0 1 414.794 85.517 A 3.718 3.718 0 0 1 415.732 82.983 A 4.246 4.246 0 0 1 417.19 81.921 A 6.018 6.018 0 0 1 418.369 81.533 A 2.524 2.524 0 0 1 417.389 80.741 A 2.996 2.996 0 0 1 417.336 80.669 A 2.254 2.254 0 0 1 416.922 79.45 A 2.792 2.792 0 0 1 416.918 79.307 A 2.781 2.781 0 0 1 417.059 78.411 A 2.464 2.464 0 0 1 417.387 77.768 A 3.481 3.481 0 0 1 417.847 77.25 Q 418.091 77.021 418.405 76.797 A 7.639 7.639 0 0 1 418.867 76.494 A 4.263 4.263 0 0 1 417.015 75.011 A 5.284 5.284 0 0 1 416.838 74.751 A 5.027 5.027 0 0 1 416.066 72.328 A 6.135 6.135 0 0 1 416.054 71.938 A 7.025 7.025 0 0 1 416.239 70.277 A 4.622 4.622 0 0 1 417.636 67.873 A 5.164 5.164 0 0 1 419.618 66.78 Q 420.406 66.539 421.353 66.472 A 10.74 10.74 0 0 1 422.119 66.445 A 9.321 9.321 0 0 1 423.352 66.523 A 7.099 7.099 0 0 1 424.389 66.738 Z M 459.033 80.786 L 459.033 82.646 A 2.392 2.392 0 0 1 458.749 82.759 Q 458.397 82.876 457.868 82.961 Q 457.15 83.078 456.566 83.085 A 6.232 6.232 0 0 1 456.484 83.086 A 6.351 6.351 0 0 1 454.612 82.834 Q 452.555 82.199 452.017 79.964 A 7.643 7.643 0 0 1 451.826 78.179 L 451.826 68.628 L 449.526 68.628 L 449.526 67.456 L 451.826 66.445 L 452.851 63.017 L 454.257 63.017 L 454.257 66.738 L 458.916 66.738 L 458.916 68.628 L 454.257 68.628 L 454.257 78.076 Q 454.257 79.095 454.597 79.781 A 2.359 2.359 0 0 0 454.946 80.303 A 2.259 2.259 0 0 0 456.334 81.042 A 3.25 3.25 0 0 0 456.835 81.079 A 7.986 7.986 0 0 0 458.005 80.995 A 7.359 7.359 0 0 0 458.081 80.984 A 13.154 13.154 0 0 0 458.432 80.924 Q 458.791 80.857 459.033 80.786 Z M 406.21 66.621 L 405.874 68.877 A 10.717 10.717 0 0 0 405.103 68.735 Q 404.568 68.657 404.116 68.657 A 4.213 4.213 0 0 0 401.003 70.002 A 5.764 5.764 0 0 0 400.783 70.239 A 5.553 5.553 0 0 0 399.444 73.357 A 7.381 7.381 0 0 0 399.399 74.18 L 399.399 82.793 L 396.967 82.793 L 396.967 66.738 L 398.974 66.738 L 399.252 69.712 L 399.37 69.712 Q 400.263 68.144 401.523 67.295 A 4.847 4.847 0 0 1 404.292 66.445 A 11.163 11.163 0 0 1 405.291 66.488 A 8.148 8.148 0 0 1 406.21 66.621 Z M 411.645 66.738 L 411.645 82.793 L 409.213 82.793 L 409.213 66.738 L 411.645 66.738 Z M 423.554 82.427 L 420.639 82.427 A 5.59 5.59 0 0 0 419.632 82.512 Q 419.06 82.617 418.608 82.851 A 2.848 2.848 0 0 0 418.061 83.218 A 2.562 2.562 0 0 0 417.22 84.67 A 3.891 3.891 0 0 0 417.138 85.488 A 2.442 2.442 0 0 0 417.299 86.394 Q 417.53 86.978 418.093 87.372 A 2.853 2.853 0 0 0 418.237 87.466 Q 419.33 88.136 421.366 88.14 A 12.491 12.491 0 0 0 421.386 88.14 A 16.347 16.347 0 0 0 422.983 88.067 Q 424.583 87.91 425.588 87.409 A 4.039 4.039 0 0 0 425.92 87.224 Q 427.392 86.309 427.392 84.741 A 3.29 3.29 0 0 0 427.332 84.088 Q 427.172 83.299 426.586 82.932 Q 425.973 82.547 424.535 82.455 A 15.472 15.472 0 0 0 423.554 82.427 Z M 418.457 71.88 A 4.747 4.747 0 0 0 418.554 72.875 Q 418.687 73.492 418.998 73.955 A 2.602 2.602 0 0 0 419.409 74.429 A 3.143 3.143 0 0 0 420.674 75.115 Q 421.155 75.254 421.731 75.284 A 6.261 6.261 0 0 0 422.06 75.293 A 5.297 5.297 0 0 0 423.447 75.127 Q 425.034 74.696 425.462 73.138 A 4.925 4.925 0 0 0 425.62 71.836 Q 425.62 68.965 423.351 68.372 A 5.289 5.289 0 0 0 422.016 68.218 A 5.102 5.102 0 0 0 420.977 68.317 Q 420.339 68.45 419.854 68.76 A 2.799 2.799 0 0 0 419.379 69.141 Q 418.596 69.924 418.478 71.35 A 6.397 6.397 0 0 0 418.457 71.88 Z M 409.418 61.164 A 1.137 1.137 0 0 0 409.167 61.521 Q 409.008 61.868 409.008 62.388 A 2.871 2.871 0 0 0 409.021 62.662 Q 409.045 62.908 409.112 63.108 A 1.255 1.255 0 0 0 409.418 63.611 A 1.364 1.364 0 0 0 409.912 63.925 A 1.545 1.545 0 0 0 410.444 64.014 Q 411.03 64.014 411.455 63.611 A 1.187 1.187 0 0 0 411.686 63.304 Q 411.792 63.105 411.84 62.849 A 2.516 2.516 0 0 0 411.879 62.388 Q 411.879 61.567 411.455 61.172 A 1.433 1.433 0 0 0 410.444 60.776 A 1.856 1.856 0 0 0 410.321 60.78 A 1.406 1.406 0 0 0 409.418 61.164 Z" id="right_labelLayer" stroke="#777777" fill="#777777" style="stroke:#777777;fill:#777777" vector-effect="non-scaling-stroke"/><path d="M 509 156 L 509 168.938 L 506 168.938 L 506 185.813 L 509 185.813 L 509 202.688 L 506 202.688 L 506 219.563 L 509 219.563 L 509 236.438 L 506 236.438 L 506 253.313 L 509 253.313 L 509 270.188 L 506 270.188 L 506 287.063 L 509 287.063 L 509 300 L 537.563 300 L 537.563 303 L 554.438 303 L 554.438 300 L 571.313 300 L 571.313 303 L 588.188 303 L 588.188 300 L 605.063 300 L 605.063 303 L 621.938 303 L 621.938 300 L 638.813 300 L 638.813 303 L 655.688 303 L 655.688 300 L 672.563 300 L 672.563 303 L 689.438 303 L 689.438 300 L 706.313 300 L 706.313 303 L 723.188 303 L 723.188 300 L 740.063 300 L 740.063 303 L 756.938 303 L 756.938 300 L 773.813 300 L 773.813 303 L 790.688 303 L 790.688 300 L 807.563 300 L 807.563 303 L 824.438 303 L 824.438 300 L 841.313 300 L 853 300 L 853 287.063 L 856 287.063 L 856 270.188 L 853 270.188 L 853 253.313 L 856 253.313 L 856 236.438 L 853 236.438 L 853 219.563 L 856 219.563 L 856 202.688 L 853 202.688 L 853 185.813 L 856 185.813 L 856 168.938 L 853 168.938 L 853 156 L 824.438 156 L 824.438 153 L 807.563 153 L 807.563 156 L 790.688 156 L 790.688 153 L 773.813 153 L 773.813 156 L 756.938 156 L 756.938 153 L 740.063 153 L 740.063 156 L 723.188 156 L 723.188 153 L 706.313 153 L 706.313 156 L 689.438 156 L 689.438 153 L 672.563 153 L 672.563 156 L 655.688 156 L 655.688 153 L 638.813 153 L 638.813 156 L 621.938 156 L 621.938 153 L 605.063 153 L 605.063 156 L 588.188 156 L 588.188 153 L 571.313 153 L 571.313 156 L 554.438 156 L 554.438 153 L 537.563 153 L 537.563 156 L 520.688 156 L 509 156 Z" id="bottom_outsideCutPath" stroke="#FF0000" stroke-width="0.1" style="stroke:#FF0000;stroke-width:0.1" vector-effect="non-scaling-stroke"/><path d="M 730.351 239.25 L 727.919 239.25 L 727.919 228.805 A 7.174 7.174 0 0 0 727.847 227.75 Q 727.675 226.601 727.099 225.927 Q 726.278 224.967 724.55 224.967 A 6.257 6.257 0 0 0 723.276 225.088 Q 721.949 225.365 721.195 226.271 A 4.018 4.018 0 0 0 720.514 227.504 Q 720.111 228.633 720.111 230.285 L 720.111 239.25 L 717.68 239.25 L 717.68 228.805 A 7.174 7.174 0 0 0 717.607 227.75 Q 717.436 226.601 716.859 225.927 A 2.551 2.551 0 0 0 715.686 225.164 Q 715.264 225.026 714.748 224.985 A 5.694 5.694 0 0 0 714.296 224.967 A 6.039 6.039 0 0 0 713.047 225.088 Q 712.276 225.251 711.702 225.634 A 3.187 3.187 0 0 0 710.949 226.337 Q 709.986 227.578 709.896 230.257 A 16.93 16.93 0 0 0 709.887 230.827 L 709.887 239.25 L 707.455 239.25 L 707.455 223.195 L 709.433 223.195 L 709.828 225.392 L 709.945 225.392 A 4.779 4.779 0 0 1 711.886 223.561 A 5.773 5.773 0 0 1 714.166 222.921 A 6.973 6.973 0 0 1 714.691 222.902 A 7.961 7.961 0 0 1 716.483 223.089 Q 717.586 223.344 718.354 223.947 A 4.151 4.151 0 0 1 719.613 225.627 L 719.73 225.627 A 5.077 5.077 0 0 1 721.643 223.728 A 6.1 6.1 0 0 1 721.81 223.634 A 6.154 6.154 0 0 1 724.068 222.948 A 7.674 7.674 0 0 1 724.916 222.902 A 8.453 8.453 0 0 1 726.449 223.032 Q 727.301 223.189 727.967 223.538 A 4.007 4.007 0 0 1 728.996 224.301 A 4.187 4.187 0 0 1 729.895 225.772 Q 730.137 226.42 730.25 227.227 A 11.153 11.153 0 0 1 730.351 228.776 L 730.351 239.25 Z M 634.081 237.184 L 633.905 237.184 L 633.393 239.25 L 631.649 239.25 L 631.649 216.457 L 634.081 216.457 L 634.081 221.994 Q 634.081 223.854 633.964 225.334 L 634.081 225.334 Q 635.78 222.931 639.12 222.931 A 7.432 7.432 0 0 1 641.212 223.21 A 5.563 5.563 0 0 1 644.035 225.092 Q 645.785 227.253 645.785 231.208 A 14.257 14.257 0 0 1 645.596 233.607 Q 645.208 235.879 644.02 237.353 A 5.757 5.757 0 0 1 639.929 239.504 A 8.247 8.247 0 0 1 639.12 239.543 A 7.376 7.376 0 0 1 637.267 239.317 A 6.418 6.418 0 0 1 636.256 238.964 A 5.386 5.386 0 0 1 634.081 237.184 Z M 675.536 237.243 L 675.536 239.103 A 2.392 2.392 0 0 1 675.252 239.216 Q 674.9 239.332 674.372 239.418 Q 673.654 239.534 673.07 239.542 A 6.232 6.232 0 0 1 672.987 239.543 A 6.351 6.351 0 0 1 671.116 239.291 Q 669.058 238.656 668.52 236.421 A 7.643 7.643 0 0 1 668.329 234.635 L 668.329 225.085 L 666.029 225.085 L 666.029 223.913 L 668.329 222.902 L 669.354 219.474 L 670.761 219.474 L 670.761 223.195 L 675.419 223.195 L 675.419 225.085 L 670.761 225.085 L 670.761 234.533 Q 670.761 235.552 671.101 236.238 A 2.359 2.359 0 0 0 671.449 236.759 A 2.259 2.259 0 0 0 672.838 237.499 A 3.25 3.25 0 0 0 673.339 237.536 A 7.986 7.986 0 0 0 674.509 237.452 A 7.359 7.359 0 0 0 674.584 237.441 A 13.154 13.154 0 0 0 674.935 237.38 Q 675.294 237.313 675.536 237.243 Z M 686.127 237.243 L 686.127 239.103 A 2.392 2.392 0 0 1 685.843 239.216 Q 685.491 239.332 684.962 239.418 Q 684.244 239.534 683.66 239.542 A 6.232 6.232 0 0 1 683.578 239.543 A 6.351 6.351 0 0 1 681.706 239.291 Q 679.649 238.656 679.111 236.421 A 7.643 7.643 0 0 1 678.92 234.635 L 678.92 225.085 L 676.62 225.085 L 676.62 223.913 L 678.92 222.902 L 679.945 219.474 L 681.351 219.474 L 681.351 223.195 L 686.01 223.195 L 686.01 225.085 L 681.351 225.085 L 681.351 234.533 Q 681.351 235.552 681.691 236.238 A 2.359 2.359 0 0 0 682.04 236.759 A 2.259 2.259 0 0 0 683.429 237.499 A 3.25 3.25 0 0 0 683.93 237.536 A 7.986 7.986 0 0 0 685.099 237.452 A 7.359 7.359 0 0 0 685.175 237.441 A 13.154 13.154 0 0 0 685.526 237.38 Q 685.885 237.313 686.127 237.243 Z M 663.667 233.651 A 12.56 12.56 0 0 0 663.891 231.208 A 14.272 14.272 0 0 0 663.885 230.822 Q 663.849 229.485 663.56 228.35 A 7.572 7.572 0 0 0 661.906 225.143 A 6.366 6.366 0 0 0 658.95 223.237 A 8.171 8.171 0 0 0 656.552 222.902 A 9.444 9.444 0 0 0 654.855 223.048 A 6.432 6.432 0 0 0 651.102 225.092 Q 649.14 227.282 649.14 231.208 A 12.165 12.165 0 0 0 649.292 233.178 A 8.995 8.995 0 0 0 650.048 235.631 A 7.992 7.992 0 0 0 650.225 235.978 A 6.583 6.583 0 0 0 652.626 238.532 A 6.771 6.771 0 0 0 654.18 239.223 A 7.809 7.809 0 0 0 656.449 239.543 A 9.442 9.442 0 0 0 658.098 239.405 A 6.483 6.483 0 0 0 661.913 237.338 A 6.783 6.783 0 0 0 662.721 236.228 Q 663.38 235.101 663.667 233.651 Z M 702.969 233.651 A 12.56 12.56 0 0 0 703.192 231.208 A 14.272 14.272 0 0 0 703.187 230.822 Q 703.151 229.485 702.862 228.35 A 7.572 7.572 0 0 0 701.207 225.143 A 6.366 6.366 0 0 0 698.252 223.237 A 8.171 8.171 0 0 0 695.853 222.902 A 9.444 9.444 0 0 0 694.157 223.048 A 6.432 6.432 0 0 0 690.404 225.092 Q 688.441 227.282 688.441 231.208 A 12.165 12.165 0 0 0 688.594 233.178 A 8.995 8.995 0 0 0 689.35 235.631 A 7.992 7.992 0 0 0 689.527 235.978 A 6.583 6.583 0 0 0 691.928 238.532 A 6.771 6.771 0 0 0 693.482 239.223 A 7.809 7.809 0 0 0 695.751 239.543 A 9.442 9.442 0 0 0 697.4 239.405 A 6.483 6.483 0 0 0 701.215 237.338 A 6.783 6.783 0 0 0 702.022 236.228 Q 702.681 235.101 702.969 233.651 Z M 651.659 231.208 A 12.314 12.314 0 0 0 651.776 232.967 Q 651.906 233.86 652.177 234.583 A 5.101 5.101 0 0 0 652.89 235.895 A 3.985 3.985 0 0 0 655.485 237.424 A 6.039 6.039 0 0 0 656.508 237.506 A 5.648 5.648 0 0 0 657.998 237.321 A 3.931 3.931 0 0 0 660.133 235.902 A 5.22 5.22 0 0 0 660.946 234.319 Q 661.185 233.588 661.29 232.695 A 12.809 12.809 0 0 0 661.371 231.208 A 12.133 12.133 0 0 0 661.256 229.479 Q 660.994 227.662 660.133 226.557 A 4 4 0 0 0 657.646 225.073 A 6.133 6.133 0 0 0 656.478 224.967 A 5.787 5.787 0 0 0 655.038 225.136 A 3.873 3.873 0 0 0 652.875 226.535 A 5.028 5.028 0 0 0 652.093 228.045 Q 651.659 229.352 651.659 231.208 Z M 690.961 231.208 A 12.314 12.314 0 0 0 691.078 232.967 Q 691.207 233.86 691.479 234.583 A 5.101 5.101 0 0 0 692.191 235.895 A 3.985 3.985 0 0 0 694.787 237.424 A 6.039 6.039 0 0 0 695.809 237.506 A 5.648 5.648 0 0 0 697.3 237.321 A 3.931 3.931 0 0 0 699.435 235.902 A 5.22 5.22 0 0 0 700.248 234.319 Q 700.487 233.588 700.591 232.695 A 12.809 12.809 0 0 0 700.673 231.208 A 12.133 12.133 0 0 0 700.558 229.479 Q 700.296 227.662 699.435 226.557 A 4 4 0 0 0 696.948 225.073 A 6.133 6.133 0 0 0 695.78 224.967 A 5.787 5.787 0 0 0 694.339 225.136 A 3.873 3.873 0 0 0 692.177 226.535 A 5.028 5.028 0 0 0 691.395 228.045 Q 690.961 229.352 690.961 231.208 Z M 638.768 224.967 Q 636.278 224.967 635.18 226.396 Q 634.214 227.65 634.097 230.415 A 18.735 18.735 0 0 0 634.081 231.208 A 16.078 16.078 0 0 0 634.161 232.869 Q 634.335 234.546 634.895 235.566 A 3.668 3.668 0 0 0 635.209 236.049 A 3.528 3.528 0 0 0 636.998 237.257 Q 637.597 237.444 638.326 237.491 A 7.819 7.819 0 0 0 638.827 237.506 A 4.847 4.847 0 0 0 640.204 237.322 A 3.497 3.497 0 0 0 642.167 235.873 Q 642.952 234.706 643.176 232.811 A 13.933 13.933 0 0 0 643.266 231.178 A 14.366 14.366 0 0 0 643.179 229.541 Q 642.957 227.611 642.167 226.505 A 3.546 3.546 0 0 0 639.909 225.077 A 5.624 5.624 0 0 0 638.768 224.967 Z" id="bottom_labelLayer" stroke="#777777" fill="#777777" style="stroke:#777777;fill:#777777" vector-effect="non-scaling-stroke"/></g></svg>